<mxfile host="65bd71144e">
    <diagram id="lV-laCWjuCQ0dsJHdG31" name="Page-1">
        <mxGraphModel dx="771" dy="430" grid="0" gridSize="10" guides="1" tooltips="1" connect="1" arrows="1" fold="1" page="1" pageScale="1" pageWidth="827" pageHeight="1169" math="0" shadow="0">
            <root>
                <mxCell id="0"/>
                <mxCell id="1" parent="0"/>
                <mxCell id="3" value="&lt;p style=&quot;box-sizing: border-box; margin: 0px; font-weight: 400; color: rgb(44, 45, 48); font-family: roboto, &amp;quot;san francisco&amp;quot;, &amp;quot;helvetica neue&amp;quot;, helvetica, arial; font-size: 15px; font-style: normal; letter-spacing: normal; text-indent: 0px; text-transform: none; word-spacing: 0px; background-color: rgb(255, 255, 255);&quot;&gt;Напишите программу, которая принимает на вход три числа и выдаёт максимальное из этих чисел.&lt;/p&gt;&lt;p style=&quot;box-sizing: border-box; margin: 0px; font-weight: 400; color: rgb(44, 45, 48); font-family: roboto, &amp;quot;san francisco&amp;quot;, &amp;quot;helvetica neue&amp;quot;, helvetica, arial; font-size: 15px; font-style: normal; letter-spacing: normal; text-indent: 0px; text-transform: none; word-spacing: 0px; background-color: rgb(255, 255, 255);&quot;&gt;2, 3, 7 -&amp;gt; 7&lt;br style=&quot;box-sizing: border-box&quot;&gt;44 5 78 -&amp;gt; 78&lt;br style=&quot;box-sizing: border-box&quot;&gt;22 3 9 -&amp;gt; 22&lt;/p&gt;" style="text;whiteSpace=wrap;html=1;" parent="1" vertex="1">
                    <mxGeometry x="37" y="127" width="252.17" height="84" as="geometry"/>
                </mxCell>
                <mxCell id="16" value="yes" style="edgeStyle=none;html=1;entryX=0;entryY=0.5;entryDx=0;entryDy=0;" parent="1" source="6" target="36" edge="1">
                    <mxGeometry relative="1" as="geometry">
                        <mxPoint x="445" y="300.5" as="targetPoint"/>
                    </mxGeometry>
                </mxCell>
                <mxCell id="46" value="no" style="edgeStyle=orthogonalEdgeStyle;rounded=0;html=1;entryX=1;entryY=0.5;entryDx=0;entryDy=0;" edge="1" parent="1" source="6" target="45">
                    <mxGeometry relative="1" as="geometry"/>
                </mxCell>
                <mxCell id="6" value="if max &amp;lt; b" style="rhombus;whiteSpace=wrap;html=1;" parent="1" vertex="1">
                    <mxGeometry x="319" y="270" width="80" height="61" as="geometry"/>
                </mxCell>
                <mxCell id="17" value="yes" style="edgeStyle=none;html=1;" parent="1" source="11" edge="1">
                    <mxGeometry relative="1" as="geometry">
                        <mxPoint x="457" y="397" as="targetPoint"/>
                    </mxGeometry>
                </mxCell>
                <mxCell id="18" value="no" style="edgeStyle=none;html=1;" parent="1" source="11" edge="1">
                    <mxGeometry relative="1" as="geometry">
                        <mxPoint x="360" y="493" as="targetPoint"/>
                    </mxGeometry>
                </mxCell>
                <mxCell id="11" value="if max &amp;lt; c" style="rhombus;whiteSpace=wrap;html=1;" parent="1" vertex="1">
                    <mxGeometry x="321" y="368" width="80" height="58" as="geometry"/>
                </mxCell>
                <mxCell id="50" style="edgeStyle=orthogonalEdgeStyle;rounded=0;html=1;" edge="1" parent="1" source="15" target="19">
                    <mxGeometry relative="1" as="geometry"/>
                </mxCell>
                <mxCell id="15" value="print max" style="shape=document;whiteSpace=wrap;html=1;boundedLbl=1;" parent="1" vertex="1">
                    <mxGeometry x="327" y="495" width="68" height="52" as="geometry"/>
                </mxCell>
                <mxCell id="19" value="end" style="ellipse;whiteSpace=wrap;html=1;" parent="1" vertex="1">
                    <mxGeometry x="338" y="579" width="46" height="20" as="geometry"/>
                </mxCell>
                <mxCell id="32" style="edgeStyle=none;html=1;entryX=0.5;entryY=0;entryDx=0;entryDy=0;" edge="1" parent="1" source="27" target="6">
                    <mxGeometry relative="1" as="geometry"/>
                </mxCell>
                <mxCell id="27" value="max = a" style="rounded=0;whiteSpace=wrap;html=1;" vertex="1" parent="1">
                    <mxGeometry x="332.5" y="230" width="53" height="22" as="geometry"/>
                </mxCell>
                <mxCell id="30" style="edgeStyle=none;html=1;entryX=0.5;entryY=0;entryDx=0;entryDy=0;" edge="1" parent="1" source="24" target="29">
                    <mxGeometry relative="1" as="geometry"/>
                </mxCell>
                <mxCell id="24" value="start" style="ellipse;whiteSpace=wrap;html=1;" vertex="1" parent="1">
                    <mxGeometry x="336" y="138" width="46" height="20" as="geometry"/>
                </mxCell>
                <mxCell id="31" style="edgeStyle=none;html=1;entryX=0.5;entryY=0;entryDx=0;entryDy=0;" edge="1" parent="1" source="29" target="27">
                    <mxGeometry relative="1" as="geometry"/>
                </mxCell>
                <mxCell id="29" value="a, b, c" style="shape=parallelogram;perimeter=parallelogramPerimeter;whiteSpace=wrap;html=1;fixedSize=1;" vertex="1" parent="1">
                    <mxGeometry x="313" y="174" width="92" height="28" as="geometry"/>
                </mxCell>
                <mxCell id="49" style="edgeStyle=orthogonalEdgeStyle;rounded=0;html=1;entryX=1;entryY=0.5;entryDx=0;entryDy=0;" edge="1" parent="1" source="35" target="15">
                    <mxGeometry relative="1" as="geometry">
                        <Array as="points">
                            <mxPoint x="497" y="521"/>
                        </Array>
                    </mxGeometry>
                </mxCell>
                <mxCell id="35" value="max = c" style="rounded=0;whiteSpace=wrap;html=1;" vertex="1" parent="1">
                    <mxGeometry x="459" y="380" width="77" height="34" as="geometry"/>
                </mxCell>
                <mxCell id="48" style="edgeStyle=orthogonalEdgeStyle;rounded=0;html=1;" edge="1" parent="1" source="36">
                    <mxGeometry relative="1" as="geometry">
                        <mxPoint x="361.41379310344837" y="370.68965517241384" as="targetPoint"/>
                        <Array as="points">
                            <mxPoint x="489" y="346"/>
                            <mxPoint x="361" y="346"/>
                        </Array>
                    </mxGeometry>
                </mxCell>
                <mxCell id="36" value="max = b" style="rounded=0;whiteSpace=wrap;html=1;" vertex="1" parent="1">
                    <mxGeometry x="451" y="283.5" width="77" height="34" as="geometry"/>
                </mxCell>
                <mxCell id="47" style="edgeStyle=orthogonalEdgeStyle;rounded=0;html=1;" edge="1" parent="1" source="45" target="11">
                    <mxGeometry relative="1" as="geometry">
                        <Array as="points">
                            <mxPoint x="233" y="346"/>
                            <mxPoint x="361" y="346"/>
                        </Array>
                    </mxGeometry>
                </mxCell>
                <mxCell id="45" value="max = a" style="rounded=0;whiteSpace=wrap;html=1;" vertex="1" parent="1">
                    <mxGeometry x="195" y="283.5" width="77" height="34" as="geometry"/>
                </mxCell>
            </root>
        </mxGraphModel>
    </diagram>
</mxfile>